<svg width="21" height="22" viewBox="0 0 21 22" fill="none" xmlns="http://www.w3.org/2000/svg">
<path d="M10.4392 5.77441C7.59968 5.77441 5.24695 8.08658 5.24695 10.9667C5.24695 13.8467 7.55912 16.1589 10.4392 16.1589C13.3193 16.1589 15.6314 13.8062 15.6314 10.9667C15.6314 8.12715 13.2787 5.77441 10.4392 5.77441ZM10.4392 14.2929C8.61379 14.2929 7.11291 12.7921 7.11291 10.9667C7.11291 9.14126 8.61379 7.64037 10.4392 7.64037C12.2646 7.64037 13.7655 9.14126 13.7655 10.9667C13.7655 12.7921 12.2646 14.2929 10.4392 14.2929Z" fill="black"/>
<path d="M15.8343 6.8293C16.484 6.8293 17.0106 6.30262 17.0106 5.65293C17.0106 5.00324 16.484 4.47656 15.8343 4.47656C15.1846 4.47656 14.6579 5.00324 14.6579 5.65293C14.6579 6.30262 15.1846 6.8293 15.8343 6.8293Z" fill="black"/>
<path d="M18.8766 2.6104C17.8219 1.51517 16.321 0.947266 14.6173 0.947266H6.26105C2.73195 0.947266 0.379211 3.3 0.379211 6.8291V15.1448C0.379211 16.8891 0.947113 18.3899 2.08292 19.4852C3.17815 20.5399 4.63847 21.0672 6.30161 21.0672H14.5767C16.321 21.0672 17.7813 20.4993 18.836 19.4852C19.9312 18.4305 20.4991 16.9296 20.4991 15.1854V6.8291C20.4991 5.1254 19.9312 3.66508 18.8766 2.6104ZM18.7143 15.1854C18.7143 16.4429 18.2681 17.457 17.5379 18.1466C16.8078 18.8362 15.7937 19.2012 14.5767 19.2012H6.30161C5.08468 19.2012 4.07057 18.8362 3.34041 18.1466C2.61025 17.4164 2.24517 16.4023 2.24517 15.1448V6.8291C2.24517 5.61217 2.61025 4.59806 3.34041 3.8679C4.03 3.17831 5.08468 2.81323 6.30161 2.81323H14.6579C15.8748 2.81323 16.8889 3.17831 17.6191 3.90846C18.3087 4.63862 18.7143 5.65273 18.7143 6.8291V15.1854Z" fill="black"/>
</svg>
